<?xml version="1.0" encoding="UTF-8"?>
<svg version="1.1" viewBox="0 0 2048 716" width="532" height="186" xmlns="http://www.w3.org/2000/svg">
<path transform="translate(0)" d="m0 0h2048v716h-2048z" fill="#FEFEFE"/>
<path transform="translate(426,54)" d="m0 0h49l23 3 22 5 20 6 24 10 23 12 18 12 13 10 13 11 21 21 11 14 12 17 12 21 11 23 10 30 5 22 3 22 1 11v30l-3 27-4 21-7 24-10 25-12 23-7 11-10 14-11 14-14 15-7 7-11 9-15 12-17 11-22 12-26 11-23 7-24 5-27 3h-31l-21-2-23-4-25-7-21-8-19-9-19-11-17-12-11-9-10-9-22-22-10-13-10-14-9-15-8-15-11-26-7-23-5-24-3-27v-29l3-29 6-28 9-27 8-18 11-21 15-22 13-16 12-13 10-10 22-18 18-12 18-10 21-10 30-10 22-5z" fill="#010101"/>
<path transform="translate(474,123)" d="m0 0 4 2 11 17 12 19 28 44 9 14 1 4-2 3h-8l-50-11-4-1-1 8-9 42-19 85-19 86-3 6h-38l-3-7-12-48-10-42-5-16h-5l-3 6-12 50-13 53-3 4h-37l-3-5-11-48-19-86-10-45v-9l3-1h34l3 9 20 105 1 3 6 1h2l2-9 16-70 9-37 2-2h31l3 6 10 44 10 42 6 25 2 2 5-1 3-9 20-100 10-48v-2l-58-13-4-3 1-5 15-10 22-14 17-11 24-15z" fill="#FEFEFE"/>
<path transform="translate(562,244)" d="m0 0 23 1 19 5 11 6 11 9 8 11 6 13 4 15v4l-2 1h-35l-2-1-4-12-6-10-9-6-11-3h-13l-13 4-9 7-7 11-4 12-2 11v43l4 18 6 12 6 7 10 6 11 3h18l13-3 7-4 1-2 1-34-35 1-1-1v-28h76v77l-8 8-11 7-14 6-16 4-15 2h-21l-16-3-15-6-13-9-11-11-7-11-6-15-4-15-2-19v-21l2-21 4-15 7-16 9-13 8-8 14-9 13-5 9-2z" fill="#FEFEFE"/>
<path transform="translate(1860,238)" d="m0 0h32l11 2 8 4 6 7 2 5 1 9-3 10-4 6-4 4-4 2-1 2 6 1 6 4 6 7 2 5 1 10-2 9-5 8-8 7-10 4h-41v-105z" fill="#010101"/>
<path transform="translate(793,238)" d="m0 0h12l3 6 11 41 8 28 3 12 7-24 18-62 1-1h11l3 7 13 47 8 31v2h2l1-8 19-71 3-8h12l1 3-15 53-13 47-3 4-13-1-3-6-10-36-10-35v-4h-2l-4 17-18 63-2 2-13-1-3-6-22-76-6-21z" fill="#010101"/>
<path transform="translate(1172,237)" d="m0 0h24l12 3 5 3v13l-12-5-11-2h-14l-9 2-10 6-8 9-5 11-1 4v21l4 13 6 8 7 6 10 4 14 1 14-3h3v-30l-22-1v-11h35l1 1v46l-5 4-11 4-11 2h-16l-14-3-10-6-10-10-7-14-2-8v-23l3-12 7-13 10-10 8-5 11-4z" fill="#010101"/>
<path transform="translate(1649,238)" d="m0 0h11l1 1v46h54v-46l1-1h12v106h-13v-48h-54v47l-1 1h-12v-105z" fill="#010101"/>
<path transform="translate(1255,267)" d="m0 0h20l8 4 7 8 2 6 1 14v32l-1 13-1 1-11-1v-10l-8 8-10 4h-12l-9-4-6-7-2-4v-15l4-8 8-6 10-3 21-3h4l-3-12-5-5-9-1-11 2-12 6-1-5 1-7 8-5z" fill="#010101"/>
<path transform="translate(961,267)" d="m0 0h17l9 4 7 7 4 7 2 8v16l-1 1h-52l3 11 4 7 5 4 5 2h15l13-5 4-1v7l-2 5-8 4-9 2h-15l-10-3-9-7-6-10-3-12v-13l2-10 5-10 6-7 10-6z" fill="#010101"/>
<path transform="translate(1386,267)" d="m0 0h17l7 3 8 7 5 8 2 8v16l-3 1h-50l3 12 6 8 8 4 9 1 11-2 9-5h3v7l-3 5-7 4-10 2h-13l-11-3-9-7-5-8-3-10-1-13 2-13 6-12 5-6 10-6z" fill="#010101"/>
<path transform="translate(1755,238)" d="m0 0h11l1 1 1 71 2 9 5 8 5 4 5 2 12 1 9-2 6-4 5-6 2-7 1-57 1-20h12v74l-3 13-7 11-9 6-8 3-7 1h-14l-11-3-9-6-6-8-4-13-1-8v-69z" fill="#010101"/>
<path transform="translate(799,376)" d="m0 0h29l8 3 6 7 2 5v13l-4 8-7 6-5 2-6 1h-14v27l-1 1h-7l-1-12z" fill="#010101"/>
<path transform="translate(1115,384)" d="m0 0h20l10 3 7 6 4 9 1 13-2 9-6 9-7 5-7 2-10 1h-9l-1-1z" fill="#FEFEFE"/>
<path transform="translate(1518,238)" d="m0 0h37l35 1v10l-10 1h-20v93l-1 1h-12l-1-94h-21l-9-1v-9z" fill="#010101"/>
<path transform="translate(1034,267)" d="m0 0h19l7 3 1 1 1 11-11-3h-17l-5 2-2 8 3 5 8 5 14 6 9 7 3 6 1 6-3 10-5 6-10 5-6 1h-14l-9-2-4-2-1-13 5 1 6 3 4 1h15l6-3 2-4-1-6-5-5-18-8-8-6-4-5-1-3v-10l4-8 6-5 6-3z" fill="#010101"/>
<path transform="translate(1094,247)" d="m0 0h6v21h17l2 1v9l-1 1h-18v39l1 11 2 5h16v8l-2 3-3 1h-13l-8-4-4-5-2-7v-51h-12l-1-4v-6l1-1h12v-18z" fill="#010101"/>
<path transform="translate(1329,246)" d="m0 0h2v22h18l1 1v9l-1 1h-18l1 48 2 5 2 2h14l1 5-3 6-3 1h-12l-7-3-6-7-2-13v-44h-11l-1-1v-9l2-1 10-1 1-17z" fill="#010101"/>
<path transform="translate(1107,376)" d="m0 0h30l12 3 8 6 6 9 2 7v21l-4 10-8 9-12 6-17 2h-16l-1-1zm8 8v56l1 1h9l14-2 8-4 6-7 3-7 1-11-2-11-5-8-5-4-10-3z" fill="#010101"/>
<path transform="translate(1487,238)" d="m0 0h12l1 1v104l-1 1h-12z" fill="#010101"/>
<path transform="translate(1873,295)" d="m0 0h15l12 2 7 4 4 7v12l-4 7-3 3-10 3h-22v-37z" fill="#FEFEFE"/>
<path transform="translate(852,375)" d="m0 0 7 1 7 19 12 34 2 7 5-12 15-42 2-6h10l-3 11-18 47-5 12-2 3h-7l-3-3-14-39-10-28v-3z" fill="#010101"/>
<path transform="translate(1872,250)" d="m0 0h22l7 3 4 5 1 3v9l-3 7-6 5-11 2h-14z" fill="#FEFEFE"/>
<path transform="translate(1043,376)" d="m0 0h52v7l-1 1h-20v44l-1 21h-7l-1-1v-64h-21z" fill="#010101"/>
<path transform="translate(918,375)" d="m0 0 51 1v6l-2 2-19 1-1 63-1 1h-7l-1-6v-59h-21v-8z" fill="#010101"/>
<path transform="translate(1009,375)" d="m0 0 7 1 1 1v64h29l1 7-1 1h-38v-73z" fill="#010101"/>
<path transform="translate(1274,306)" d="m0 0h6v13l-4 8-8 7-6 2-9-1-6-5-2-5v-7l3-5 5-3 14-3z" fill="#FEFEFE"/>
<path transform="translate(808,384)" d="m0 0h17l6 3 4 6v10l-4 6-5 3-4 1h-14z" fill="#FEFEFE"/>
<path transform="translate(1391,277)" d="m0 0 11 1 7 6 4 9v6h-41l1-5 4-8 8-7z" fill="#FEFEFE"/>
<path transform="translate(966,277)" d="m0 0 10 1 5 3 4 5 3 8v5h-41l1-6 5-8 7-6z" fill="#FEFEFE"/>
</svg>
